<svg width="43" height="42" viewBox="0 0 43 42" fill="none" xmlns="http://www.w3.org/2000/svg">
    <path
        d="M21.0101 -0.00671387C9.40515 -0.00671387 -0.00317383 9.39863 -0.00317383 20.9998C-0.00317383 32.6011 9.40515 42.0064 21.0101 42.0064C32.615 42.0064 42.0233 32.6011 42.0233 20.9998C42.0233 9.39863 32.615 -0.00671387 21.0101 -0.00671387Z"
        fill="#C6FE1E" />
    <mask id="mask0_433_167756" style="mask-type:luminance" maskUnits="userSpaceOnUse" x="6" y="9"
        width="32" height="27">
        <path d="M37.8206 9.44624H6.30078V35.7044H37.8206V9.44624Z" fill="white" />
    </mask>
    <g mask="url(#mask0_433_167756)">
        <path
            d="M18.5025 15.5044H18.4885C17.62 15.2551 16.701 15.7537 16.4068 16.5771C16.0818 17.4622 16.5973 18.4761 17.5079 18.7562C19.7381 19.3892 20.6963 16.1934 18.5025 15.5044Z"
            fill="#0D0D0D" />
        <path
            d="M37.5098 20.0222C34.6379 13.7342 25.4762 16.3362 24.63 14.6893C22.1505 10.7989 17.522 8.61421 12.518 9.74016C11.7475 9.43207 9.09427 9.34804 7.37959 10.4264L8.41344 10.8829C8.49189 10.9165 8.46948 10.9081 8.58435 10.9501C9.05224 11.1266 8.97099 11.0762 8.63478 11.261C7.86429 11.712 6.90329 12.2357 6.30371 13.0228C6.32893 13.0592 7.62334 13.3701 7.62334 13.3701C7.64576 13.3757 7.88671 13.4009 7.83347 13.5073C3.60001 20.1902 10.7389 30.2762 14.2047 35.7043H24.2378C22.6884 32.9314 20.9177 29.1474 21.5229 26.579C21.6322 26.1141 21.7722 25.5231 22.3438 25.4447C23.7251 25.2234 25.5742 25.243 26.8911 25.0946C26.8911 25.0946 26.8976 25.0946 26.9107 25.0946C27.1909 25.0806 34.0496 24.2095 35.6914 28.4836C35.8315 28.8757 36.1537 28.6209 36.2826 28.3632C37.507 25.9292 38.2971 22.0976 37.5154 20.025L37.5098 20.0222ZM26.4372 17.9579C25.9553 18.8178 25.6275 19.9353 25.5434 20.9101C25.4986 21.529 25.563 22.1396 25.6247 22.7586C25.6583 23.1003 25.6611 23.5317 25.3865 23.7557C25.1484 23.9574 24.7533 23.977 24.3555 24.005C22.4026 23.9966 17.6396 24.005 15.8045 22.7558L15.7933 22.7474C13.1232 21.1201 11.6943 17.4454 13.2801 14.5913C13.7928 13.6222 14.737 12.992 15.8129 12.7539C17.197 12.4374 18.7211 12.6727 19.9567 13.3197C20.461 13.5746 21.0634 13.9107 21.5229 14.2972C22.4335 15.0926 23.2124 15.9189 24.4059 16.1738C24.9551 16.3306 25.5266 16.3082 26.0758 16.4202C27.104 16.6667 26.8462 17.2521 26.4344 17.9523L26.4372 17.9579Z"
            fill="#0D0D0D" />
    </g>
</svg>
    