<svg width="240" height="44" viewBox="0 0 240 44" fill="none" xmlns="http://www.w3.org/2000/svg">
<path d="M26.5419 33.649C23.0419 32.349 19.4419 32.149 16.1419 33.049C13.8419 33.649 11.6419 34.849 9.64188 36.349L8.24185 37.549L7.84186 37.949L8.74185 38.749C8.84185 38.749 8.84186 38.849 8.94186 38.949C9.14186 39.149 9.34188 39.249 9.64188 39.449L10.2419 39.849L10.8419 39.349C10.9419 39.249 11.1419 39.049 11.3419 38.949C13.1419 37.449 15.1419 36.449 17.2419 35.949C19.9419 35.249 22.8419 35.349 25.7419 36.449C28.1419 37.349 33.0419 38.449 38.9419 35.949L39.1419 35.849L39.4419 35.549C39.4419 35.449 39.5419 35.449 39.6419 35.349C40.1419 34.749 40.6419 34.149 41.0419 33.449L43.0419 30.349L39.8419 32.149C35.1419 34.749 30.8419 35.249 26.5419 33.649Z" fill="white"/>
<path d="M12.8419 22.849C15.5419 22.149 18.4419 22.249 21.3419 23.349C24.5419 24.549 32.7419 26.249 41.9419 17.949L43.4419 16.449L43.5419 16.349L43.9419 15.949L43.7419 15.449C43.6419 15.049 43.4419 14.549 43.2419 14.049L42.7419 12.649L41.7419 13.649C41.6419 13.849 41.4419 13.949 41.2419 14.149C36.8419 18.649 30.0419 23.249 22.2419 20.449C18.7419 19.149 15.1419 18.949 11.8419 19.849C8.64186 20.749 5.84185 22.449 3.24185 24.849V24.749L1.74185 26.349C1.74185 26.449 1.64187 26.449 1.54187 26.549L1.24185 26.849L1.34186 27.249C1.44186 27.749 1.64185 28.249 1.74185 28.749L2.34186 30.349L3.34186 29.049C3.44186 28.849 3.64185 28.749 3.74185 28.549C5.84185 26.649 8.74186 23.949 12.8419 22.849Z" fill="white"/>
<path d="M3.14188 21.049C5.44188 18.649 8.04186 17.149 10.8419 16.349C13.5419 15.649 16.4419 15.749 19.3419 16.849C28.3419 20.149 36.1419 14.749 39.5419 11.849L40.8419 10.549L41.3419 10.149L40.9419 9.54901C40.6419 9.24901 40.4419 8.84901 40.1419 8.44901L39.5419 7.64899L38.8419 8.349C38.7419 8.449 38.5419 8.64899 38.4419 8.74899C34.2419 12.749 27.7419 16.849 20.3419 14.049C16.8419 12.749 13.2419 12.549 9.94186 13.449C7.84186 14.049 5.84186 15.049 3.84186 16.349L1.74185 18.049C1.54185 18.249 1.44185 18.349 1.24185 18.549L1.04187 18.749V19.049C0.94187 19.749 0.941858 20.449 0.841858 21.049L0.741852 23.549L2.44186 21.749C2.64186 21.549 2.84188 21.249 3.14188 21.049Z" fill="white"/>
<path d="M29.4419 40.449L29.2419 41.049L29.4419 40.449C29.1419 40.349 28.9419 40.249 28.6419 40.149C25.1419 38.849 21.5419 38.649 18.2419 39.549C17.5419 39.749 16.8419 39.949 16.1419 40.249L13.7419 41.349L13.1419 41.649L15.1419 42.349C15.7419 42.549 16.3419 42.749 16.9419 42.949L17.2419 43.049L17.5419 42.949C17.8419 42.849 18.1419 42.649 18.4419 42.649C18.6419 42.649 18.8419 42.549 19.0419 42.449C21.4419 41.849 24.0419 41.849 26.8419 42.749C27.1419 42.849 27.3419 42.949 27.6419 43.049L28.1419 43.249L28.4419 43.149C29.1419 42.949 29.9419 42.749 30.5419 42.449L33.3419 41.449L30.4419 40.749C30.1419 40.649 29.7419 40.549 29.4419 40.449Z" fill="white"/>
<path d="M44.7419 19.749L43.2419 21.249C43.0419 21.449 42.8419 21.649 42.6419 21.849C38.5419 25.749 31.9419 29.949 24.5419 27.149C21.0419 25.849 17.4419 25.649 14.1419 26.549C11.0419 27.449 8.24185 29.049 5.74185 31.449L4.44186 32.849L4.04187 33.349L4.44186 33.949C4.74186 34.349 4.94188 34.649 5.14188 35.049L5.74185 35.949L6.44186 35.049C6.54186 34.949 6.74186 34.749 6.84186 34.649C9.24186 32.049 11.8419 30.449 14.8419 29.649C17.5419 28.949 20.4419 29.049 23.3419 30.149C25.8419 31.049 28.4419 31.349 31.0419 31.049C35.6419 30.549 40.2419 27.949 43.6419 25.049C43.8419 24.849 44.0419 24.749 44.2419 24.549L44.5419 24.249V23.949C44.5419 23.349 44.6419 22.649 44.6419 22.049L44.7419 19.749Z" fill="white"/>
<path d="M6.74185 10.549L6.44186 9.94901L6.74185 10.549C7.34185 10.249 8.04188 10.049 8.64188 9.849C11.3419 9.149 14.2419 9.249 17.1419 10.349C19.0419 11.049 20.9419 11.349 23.0419 11.349C27.2419 11.349 31.4419 9.84901 35.3419 6.94901L36.8419 5.74899L37.3419 5.349L36.4419 4.64899C36.1419 4.34899 35.7419 4.049 35.3419 3.849L34.7419 3.44901L34.2419 3.849C34.0419 3.949 33.9419 4.14899 33.7419 4.24899C28.4419 8.24899 23.1419 9.34901 18.1419 7.44901C14.5419 6.14901 10.9419 5.84901 7.34186 6.94901C7.04186 7.04901 6.74186 7.14899 6.34186 7.24899L6.14188 7.349L5.84186 7.64899C5.84186 7.74899 5.74188 7.749 5.64188 7.849C5.24188 8.449 4.74186 8.94901 4.34186 9.54901L2.44186 12.449L5.54187 10.849C6.04187 10.849 6.44185 10.649 6.74185 10.549Z" fill="white"/>
<path d="M14.9419 3.74899L15.2419 3.849C16.5419 4.349 18.5419 4.849 21.0419 4.849C23.6419 4.849 26.1419 4.24899 28.6419 3.24899L31.7419 1.74899L29.6419 1.04901C29.0419 0.849011 28.4419 0.649011 27.7419 0.549011H27.4419L27.1419 0.648987C26.8419 0.748987 26.5419 0.949011 26.2419 1.04901C23.2419 2.14901 20.2419 2.34901 17.3419 1.54901C17.0419 1.44901 16.7419 1.34899 16.4419 1.24899L16.1419 1.14899L15.8419 1.24899C15.2419 1.44899 14.6419 1.64901 14.0419 1.94901L11.7419 2.94901L14.1419 3.64899C14.3419 3.54899 14.6419 3.64899 14.9419 3.74899Z" fill="white"/>
<path d="M64.2359 33.899V9.69H73.3949C74.1689 9.69 74.9859 9.733 75.8459 9.819C76.7059 9.87633 77.5372 10.0197 78.3399 10.249C79.1712 10.4783 79.9165 10.8367 80.5759 11.324C81.2352 11.7827 81.7512 12.399 82.1239 13.173C82.5252 13.947 82.7259 14.9217 82.7259 16.097C82.7259 17.0143 82.5395 17.8743 82.1669 18.677C81.8229 19.451 81.1779 20.0817 80.2319 20.569C79.3145 21.0563 77.9672 21.3287 76.1899 21.386V21.558C78.2252 21.5867 79.7875 21.8733 80.8769 22.418C81.9949 22.9627 82.7689 23.6793 83.1989 24.568C83.6289 25.428 83.8439 26.3883 83.8439 27.449C83.8439 28.653 83.6289 29.6563 83.1989 30.459C82.7689 31.233 82.1955 31.8493 81.4789 32.308C80.7622 32.7667 79.9595 33.1107 79.0709 33.34C78.1822 33.5693 77.2649 33.727 76.3189 33.813C75.4015 33.8703 74.5415 33.899 73.7389 33.899H64.2359ZM67.7619 30.975H73.4379C74.6705 30.975 75.7885 30.9033 76.7919 30.76C77.7952 30.588 78.5979 30.2153 79.1999 29.642C79.8305 29.0687 80.1459 28.1943 80.1459 27.019C80.1459 25.7577 79.8162 24.8403 79.1569 24.267C78.5262 23.665 77.6805 23.278 76.6199 23.106C75.5592 22.9053 74.3839 22.805 73.0939 22.805H67.7619V30.975ZM67.7619 20.01H72.9649C74.1402 20.01 75.1865 19.9383 76.1039 19.795C77.0499 19.6517 77.7952 19.3363 78.3399 18.849C78.8845 18.333 79.1569 17.5303 79.1569 16.441C79.1569 15.237 78.8702 14.377 78.2969 13.861C77.7235 13.3163 76.9639 12.9867 76.0179 12.872C75.1005 12.7287 74.0972 12.657 73.0079 12.657H67.7619V20.01ZM87.5345 33.899V16.312H91.1035V33.899H87.5345ZM89.3405 13.861C88.5091 13.861 87.9358 13.646 87.6205 13.216C87.3338 12.786 87.1905 12.2843 87.1905 11.711C87.1905 11.1663 87.3338 10.6933 87.6205 10.292C87.9358 9.862 88.5091 9.647 89.3405 9.647C90.1718 9.647 90.7165 9.862 90.9745 10.292C91.2611 10.6933 91.4045 11.1663 91.4045 11.711C91.4045 12.2843 91.2611 12.786 90.9745 13.216C90.7165 13.646 90.1718 13.861 89.3405 13.861ZM95.386 33.899V9.69H98.912V33.899H95.386ZM103.197 33.899V9.69H106.723V33.899H103.197ZM111.05 33.899V16.312H114.619V33.899H111.05ZM112.856 13.861C112.025 13.861 111.451 13.646 111.136 13.216C110.849 12.786 110.706 12.2843 110.706 11.711C110.706 11.1663 110.849 10.6933 111.136 10.292C111.451 9.862 112.025 9.647 112.856 9.647C113.687 9.647 114.232 9.862 114.49 10.292C114.777 10.6933 114.92 11.1663 114.92 11.711C114.92 12.2843 114.777 12.786 114.49 13.216C114.232 13.646 113.687 13.861 112.856 13.861ZM118.386 33.899V16.312H121.439L122.041 20.397H122.127C122.155 20.2823 122.27 20.01 122.471 19.58C122.671 19.15 123.001 18.6913 123.46 18.204C123.918 17.688 124.535 17.2437 125.309 16.871C126.083 16.4983 127.057 16.312 128.233 16.312C129.465 16.312 130.469 16.5127 131.243 16.914C132.045 17.2867 132.676 17.8027 133.135 18.462C133.622 19.0927 133.966 19.8093 134.167 20.612C134.367 21.386 134.496 22.1887 134.554 23.02C134.611 23.8227 134.64 24.5823 134.64 25.299V33.899H131.157V25.256C131.157 24.1667 131.042 23.192 130.813 22.332C130.583 21.4433 130.168 20.7553 129.566 20.268C128.964 19.752 128.061 19.494 126.857 19.494C125.653 19.494 124.692 19.7807 123.976 20.354C123.288 20.9273 122.786 21.6727 122.471 22.59C122.184 23.4787 122.041 24.4533 122.041 25.514V33.899H118.386ZM142.597 41.424V38.07H150.853V30.373H150.767C150.71 30.4877 150.566 30.76 150.337 31.19C150.108 31.5913 149.749 32.0357 149.262 32.523C148.803 33.0103 148.187 33.4403 147.413 33.813C146.668 34.157 145.736 34.329 144.618 34.329C142.927 34.329 141.522 33.942 140.404 33.168C139.286 32.394 138.455 31.3333 137.91 29.986C137.394 28.6387 137.136 27.0907 137.136 25.342C137.136 23.536 137.408 21.9593 137.953 20.612C138.498 19.236 139.329 18.1753 140.447 17.43C141.565 16.6847 142.97 16.312 144.661 16.312C145.808 16.312 146.768 16.4983 147.542 16.871C148.316 17.2437 148.918 17.688 149.348 18.204C149.807 18.72 150.136 19.193 150.337 19.623C150.566 20.053 150.695 20.3253 150.724 20.44H150.81V16.312H154.508V36.135C154.508 37.3963 154.35 38.414 154.035 39.188C153.72 39.962 153.218 40.521 152.53 40.865C151.871 41.2377 150.982 41.424 149.864 41.424H142.597ZM145.607 31.233C146.725 31.233 147.671 30.9893 148.445 30.502C149.219 30.0147 149.792 29.3267 150.165 28.438C150.566 27.5493 150.767 26.5173 150.767 25.342C150.767 24.1953 150.581 23.1777 150.208 22.289C149.835 21.4003 149.276 20.7267 148.531 20.268C147.814 19.7807 146.897 19.537 145.779 19.537C144.518 19.537 143.5 19.8093 142.726 20.354C141.981 20.8987 141.436 21.6153 141.092 22.504C140.777 23.3927 140.619 24.3387 140.619 25.342C140.619 26.3453 140.762 27.3057 141.049 28.223C141.364 29.1117 141.88 29.8427 142.597 30.416C143.342 30.9607 144.346 31.233 145.607 31.233ZM177.873 34.415C176.555 34.415 175.279 34.2573 174.046 33.942C172.814 33.6267 171.696 33.1393 170.692 32.48C169.689 31.8207 168.886 30.975 168.284 29.943C167.682 28.8823 167.367 27.621 167.338 26.159H170.95C170.95 26.245 170.979 26.4743 171.036 26.847C171.094 27.2197 171.237 27.6497 171.466 28.137C171.724 28.6243 172.097 29.0973 172.584 29.556C173.1 30.0147 173.803 30.4017 174.691 30.717C175.609 31.0037 176.755 31.147 178.131 31.147C179.192 31.147 180.081 31.0323 180.797 30.803C181.514 30.5737 182.087 30.2727 182.517 29.9C182.947 29.5273 183.248 29.1403 183.42 28.739C183.621 28.3377 183.721 27.9793 183.721 27.664C183.721 26.7753 183.435 26.0587 182.861 25.514C182.317 24.9693 181.571 24.5393 180.625 24.224C179.679 23.88 178.633 23.579 177.486 23.321C176.368 23.0343 175.25 22.7333 174.132 22.418C173.014 22.074 171.982 21.6297 171.036 21.085C170.119 20.5403 169.402 19.838 168.886 18.978C168.37 18.0893 168.141 16.957 168.198 15.581C168.284 14.2623 168.743 13.13 169.574 12.184C170.406 11.238 171.538 10.5213 172.971 10.034C174.433 9.518 176.096 9.26 177.959 9.26C179.651 9.26 181.199 9.561 182.603 10.163C184.037 10.765 185.183 11.668 186.043 12.872C186.932 14.0473 187.362 15.5523 187.333 17.387H183.85C183.879 16.3837 183.678 15.581 183.248 14.979C182.818 14.3483 182.259 13.861 181.571 13.517C180.912 13.173 180.224 12.9437 179.507 12.829C178.791 12.6857 178.146 12.614 177.572 12.614C175.967 12.614 174.634 12.915 173.573 13.517C172.541 14.0903 172.011 14.9073 171.982 15.968C171.954 16.8853 172.226 17.6163 172.799 18.161C173.373 18.7057 174.132 19.1357 175.078 19.451C176.024 19.7663 177.071 20.053 178.217 20.311C179.364 20.569 180.496 20.8557 181.614 21.171C182.732 21.4863 183.75 21.9163 184.667 22.461C185.613 22.977 186.344 23.6793 186.86 24.568C187.405 25.4567 187.649 26.6033 187.591 28.008C187.534 29.3553 187.075 30.502 186.215 31.448C185.355 32.394 184.209 33.125 182.775 33.641C181.342 34.157 179.708 34.415 177.873 34.415ZM195.72 30.889C196.838 30.889 197.698 30.889 198.3 30.889C198.902 30.889 199.346 30.889 199.633 30.889C201.181 30.889 202.571 30.7743 203.804 30.545C205.037 30.287 206.097 29.8283 206.986 29.169C207.875 28.481 208.548 27.5493 209.007 26.374C209.494 25.17 209.738 23.622 209.738 21.73C209.738 19.7233 209.322 18.0607 208.491 16.742C207.66 15.4233 206.484 14.4343 204.965 13.775C203.474 13.1157 201.697 12.786 199.633 12.786H195.72V30.889ZM213.522 21.773C213.522 24.955 212.906 27.4347 211.673 29.212C210.469 30.9607 208.749 32.179 206.513 32.867C204.306 33.555 201.697 33.899 198.687 33.899C198.228 33.899 197.497 33.899 196.494 33.899C195.491 33.899 194.043 33.899 192.151 33.899V9.69C194.158 9.69 195.648 9.69 196.623 9.69C197.598 9.69 198.286 9.69 198.687 9.69C201.697 9.69 204.306 10.1487 206.513 11.066C208.749 11.9547 210.469 13.2877 211.673 15.065C212.906 16.8423 213.522 19.0783 213.522 21.773ZM221.334 25.987V21.902L233.245 9.69H237.889V10.163L221.334 25.987ZM217.937 33.899V9.69H221.506V33.899H217.937ZM234.277 33.899L224.645 21.214L227.225 18.677L238.405 33.426V33.899H234.277Z" fill="white"/>
</svg>
